<svg xmlns="http://www.w3.org/2000/svg" version="1.1" xmlns:xlink="http://www.w3.org/1999/xlink" xmlns:svgjs="http://svgjs.dev/svgjs" width="2000" height="1500" viewBox="0 0 2000 1500"><rect width="2000" height="1500" fill="#ffffff"></rect><g transform="matrix(0.75,0,0,0.75,249.090909090909,282.7536437246963)"><svg viewBox="0 0 396 247" data-background-color="#ffffff" preserveAspectRatio="xMidYMid meet" height="1247" width="2000" xmlns="http://www.w3.org/2000/svg" xmlns:xlink="http://www.w3.org/1999/xlink"><g id="tight-bounds" transform="matrix(1,0,0,1,0.2400000000000091,-0.09999999999999432)"><svg viewBox="0 0 395.52 247.2" height="247.2" width="395.52"><g><svg viewBox="0 0 395.52 247.2" height="247.2" width="395.52"><g transform="matrix(1,0,0,1,102.8783568677792,0)"><svg viewBox="0 0 189.76328626444158 247.2" height="247.2" width="189.76328626444158"><g><svg viewBox="0 0 189.76328626444158 247.2" height="247.2" width="189.76328626444158"><g><svg viewBox="0 0 189.76328626444158 247.2" height="247.2" width="189.76328626444158"><g><svg viewBox="0 0 189.76328626444158 247.2" height="247.2" width="189.76328626444158"><g id="textblocktransform"><svg viewBox="0 0 189.76328626444158 247.2" height="247.2" width="189.76328626444158" id="textblock"><g><svg viewBox="0 0 189.76328626444158 247.2" height="247.2" width="189.76328626444158"><g transform="matrix(1,0,0,1,0,0)"><svg width="189.76328626444158" viewBox="-0.2200000000000002 -35.95 30.9 39.95" height="247.2" data-palette-color="#bfdbff"><path d="M26.68 0L22.4 0 21.5-6.55Q21.25-8.4 20.65-9.76 20.05-11.13 18.81-11.9 17.57-12.68 15.3-12.68L15.3-12.68 6.63-12.7 6.63-15.98 15.9-16Q19.18-16 20.58-17.61 21.98-19.23 21.98-22L21.98-22 21.98-22.75Q21.98-25.5 20.55-27.01 19.13-28.53 15.8-28.53L15.8-28.53 6.5-28.53 6.5-31.95 16.35-31.95Q21.5-31.95 23.84-29.69 26.18-27.43 26.18-23.45L26.18-23.45 26.18-22.6Q26.18-19.48 24.7-17.49 23.23-15.5 19.8-15.08L19.8-15.08 19.8-14.58 18.03-15.2Q20.8-15 22.31-13.99 23.83-12.98 24.53-11.23 25.23-9.47 25.6-7.03L25.6-7.03 26.68 0ZM7.88 0L3.78 0 3.78-31.95 7.85-31.95 7.85-14.88 7.88-13.3 7.88 0Z" opacity="1" transform="matrix(1,0,0,1,0,0)" fill="#bfdbff" class="wordmark-text-0" data-fill-palette-color="primary" id="text-0"></path></svg></g></svg></g></svg></g></svg></g></svg></g></svg></g></svg></g></svg></g><defs></defs></svg><rect width="395.52" height="247.2" fill="none" stroke="none" visibility="hidden"></rect></g></svg></g></svg>